# xmcd
#
# Track frame offsets:
#	150
#	10095
#	23856
#	41043
#	48740
#	61447
#	80416
#	94904
#	106867
#	119516
#	132316
#	141519
#	150691
#	162127
#
# Disc length: 2290 seconds
#
# Revision: 2
# Processed by: cddbd v1.5.2PL0 Copyright (c) Steve Scherf et al.
# Submitted via: audiograbber 1.83.01
#
DISCID=be08f00e
DTITLE=Various Artist - Mega Country Vol. III CD2
DYEAR=1998
DGENRE=Country
TTITLE0=Don Williams - Take my hand for a while
TTITLE1=Willie Nelson - Blue eyes crying in the rain
TTITLE2=Ferlin Husky - Convoy
TTITLE3=Jim Reeves - Blue Boy
TTITLE4=Johnny Cash - Peace in the Valley
TTITLE5=Brenda Lee - Saved
TTITLE6=George Jones - Family bible
TTITLE7=Stonewall Jackson - I love you because
TTITLE8=Lynn Anderson - Top of the World
TTITLE9=Wanda Jackson - Raining in my heart
TTITLE10=Hank Locklin - Flying South
TTITLE11=Loretta Lynn - Your squaw is on warpatch
TTITLE12=Charly Pride - Shutters and boards
TTITLE13=Gene Autry - May the good Lord bless and keep you
EXTD=
EXTT0=
EXTT1=
EXTT2=
EXTT3=
EXTT4=
EXTT5=
EXTT6=
EXTT7=
EXTT8=
EXTT9=
EXTT10=
EXTT11=
EXTT12=
EXTT13=
PLAYORDER=
